<?xml version="1.0" encoding="utf-8"?>
<svg viewBox="0 0 500 500" xmlns="http://www.w3.org/2000/svg">
  <path style="fill: none; stroke-width: 3px; transform-box: fill-box; transform-origin: 50% 50%; stroke: rgb(205, 205, 205);" d="M 179.835 104.044 C 212.798 68.943 306.519 69.187 326.009 104.624" transform="matrix(0.999391, 0.0349, -0.0349, 0.999391, 0, -0.000001)"/>
  <path style="fill: none; stroke-width: 3px; transform-box: fill-box; transform-origin: 50% 50%; stroke: rgb(205, 205, 205);" d="M 337.214 129.102 C 347.266 151.309 350.959 179.833 338.969 197.124 C 379.215 239.805 335.685 300.562 272.402 277.121 C 261.807 294.19 226.846 291.496 221.386 276.559 C 166.026 304.226 116.999 248.342 154.483 201.958 C 146.389 190.24 143.396 149.541 155.354 138.56" transform="matrix(0.999391, 0.0349, -0.0349, 0.999391, 0.000001, 0)"/>
  <path style="fill: none; stroke-width: 3px; transform-box: fill-box; transform-origin: 50% 50%; stroke: rgb(205, 205, 205);" d="M 314.696 95.642 C 331.943 6.261 408.908 18.979 384.591 75.533 C 371.839 105.187 384.025 153.976 345.684 142.033" transform="matrix(0.999391, 0.0349, -0.0349, 0.999391, 0, -0.000001)"/>
  <path style="fill: none; stroke-width: 3px; transform-box: fill-box; transform-origin: 50% 50%; stroke: rgb(205, 205, 205);" d="M 115.506 85.295 C 132.753 174.675 209.946 155.393 185.629 98.839 C 172.877 69.183 190.386 20.646 152.046 32.589" transform="matrix(-0.999391, -0.0349, 0.0349, -0.999391, 0.000031, 0.000023)"/>
  <path style="stroke-width: 3px; transform-box: fill-box; transform-origin: 50% 50%; stroke: rgb(205, 205, 205); fill: rgb(132, 132, 132);" d="M 225.253 179.782 C 239.118 162.434 266.675 161.18 278.574 179.902 C 289.253 196.709 298.843 195.997 319.829 213.426 C 346.176 243.108 312.064 281.388 283.494 267.961 C 262.608 257.023 262.481 230.971 248.881 226.479 C 232.965 233.326 229.542 258.041 211.563 266.837 C 173.923 283.027 153.499 229.816 182.874 211.443 C 202.485 194.835 212.804 196.354 225.253 179.782 Z" transform="matrix(0.999391, 0.0349, -0.0349, 0.999391, 0, -0.000001)"/>
  <path style="fill: none; stroke-width: 3px; transform-box: fill-box; transform-origin: 50% 50%; stroke: rgb(205, 205, 205);" d="M 226.916 250.525 C 234.432 272.419 264.665 264.756 265.999 251.513" transform="matrix(0.999391, 0.0349, -0.0349, 0.999391, -0.000001, -0.000001)"/>
  <line style="fill: rgb(216, 216, 216); stroke-width: 3px; transform-box: fill-box; transform-origin: 50% 50%; stroke: rgb(205, 205, 205);" x1="249.844" y1="226.427" x2="251.085" y2="196.492" transform="matrix(0.999391, 0.0349, -0.0349, 0.999391, 0, 0.000001)"/>
  <path style="fill: none; stroke-width: 3px; transform-box: fill-box; transform-origin: 50% 50%; stroke: rgb(205, 205, 205);" d="M 229.433 165.654 C 243.6 152.169 265.459 153.085 277.16 164.739" transform="matrix(0.999391, 0.0349, -0.0349, 0.999391, -0.000001, 0)"/>
  <path style="stroke-width: 3px; transform-box: fill-box; transform-origin: 50% 50%; stroke: rgb(205, 205, 205); fill: rgb(205, 205, 205);" d="M 252.108 196.844 C 240.683 191.104 237.967 185.254 238.072 181.505 C 244.617 173.83 266.814 175.439 269.609 181.804 C 269.943 187.38 263.895 193.83 252.108 196.844 Z" transform="matrix(0.999391, 0.0349, -0.0349, 0.999391, 0, 0)"/>
  <ellipse style="stroke-width: 3px; transform-box: fill-box; transform-origin: 50% 50%; stroke: rgb(205, 205, 205); fill: rgb(205, 205, 205);" cx="214.067" cy="197.524" rx="2.098" ry="2.098" transform="matrix(0.999391, 0.0349, -0.0349, 0.999391, 2.851039, 3.85572)"/>
  <ellipse style="stroke-width: 3px; transform-box: fill-box; transform-origin: 50% 50%; stroke: rgb(205, 205, 205); fill: rgb(205, 205, 205);" cx="224.895" cy="219.795" rx="1.7" ry="1.7" transform="matrix(0.999391, 0.0349, -0.0349, 0.999391, 3.895632, 8.340515)"/>
  <ellipse style="stroke-width: 3px; transform-box: fill-box; transform-origin: 50% 50%; stroke: rgb(205, 205, 205); fill: rgb(205, 205, 205);" cx="230.747" cy="201.274" rx="2.19" ry="2.19" transform="matrix(0.999391, 0.0349, -0.0349, 0.999391, 5.720691, 5.22379)"/>
  <ellipse style="stroke-width: 3px; transform-box: fill-box; transform-origin: 50% 50%; stroke: rgb(205, 205, 205); fill: rgb(205, 205, 205);" cx="209.653" cy="213.581" rx="2.302" ry="2.302" transform="matrix(0.999391, 0.0349, -0.0349, 0.999391, 1.388357, 6.58499)"/>
  <ellipse style="stroke-width: 3px; transform-box: fill-box; transform-origin: 50% 50%; stroke: rgb(205, 205, 205); fill: rgb(205, 205, 205);" cx="271.351" cy="200.263" rx="1.748" ry="1.748" transform="matrix(0.999391, 0.0349, -0.0349, 0.999391, 13.124583, 6.71549)"/>
  <ellipse style="stroke-width: 3px; transform-box: fill-box; transform-origin: 50% 50%; stroke: rgb(205, 205, 205); fill: rgb(205, 205, 205);" cx="262.789" cy="223.295" rx="2.104" ry="2.104" transform="matrix(0.999391, 0.0349, -0.0349, 0.999391, 10.621844, 10.538251)"/>
  <ellipse style="stroke-width: 3px; transform-box: fill-box; transform-origin: 50% 50%; stroke: rgb(205, 205, 205); fill: rgb(205, 205, 205);" cx="255.514" cy="204.566" rx="2.55" ry="2.55" transform="matrix(0.999391, 0.0349, -0.0349, 0.999391, 10.075379, 6.842311)"/>
  <ellipse style="stroke-width: 3px; transform-box: fill-box; transform-origin: 50% 50%; stroke: rgb(205, 205, 205); fill: rgb(205, 205, 205);" cx="276.48" cy="216.406" rx="2.365" ry="2.365" transform="matrix(0.999391, 0.0349, -0.0349, 0.999391, 13.388499, 9.853935)"/>
  <path style="fill: none; stroke-width: 3px; stroke: rgb(205, 205, 205);" d="M 331.623 276.268 C 343.454 292.477 340.556 314.051 339.323 333.091 C 438.819 392.383 365.896 477.648 315.818 471.309"/>
  <path style="fill: none; stroke-width: 3px; transform-box: fill-box; transform-origin: 50% 50%; stroke: rgb(205, 205, 205);" d="M 161.344 450.949 C 177.964 435.744 177.337 396.83 171.668 377.302 C 234.745 295.415 159.664 261.141 125.327 260.53" transform="matrix(-1, 0, 0, -1, -0.000027, 9.830933)"/>
  <path style="stroke-width: 3px; transform-box: fill-box; transform-origin: 50% 50%; stroke: rgb(205, 205, 205); fill: rgb(132, 132, 132);" d="M 329.956 88.223 C 351.657 33.291 404.482 42.195 373.279 79.218 C 356.913 97.028 360.621 132.896 343.09 123.271 C 333.332 117.915 325.391 95.07 329.956 88.223 Z" transform="matrix(0.981627, -0.190809, 0.190809, 0.981627, 0.000001, -0.000001)"/>
  <path style="stroke-width: 3px; transform-box: fill-box; transform-origin: 50% 50%; stroke: rgb(205, 205, 205); fill: rgb(132, 132, 132);" d="M 121.688 90.102 C 143.389 145.035 193.861 133.171 162.658 96.148 C 146.291 78.339 151.802 38.446 134.272 48.071 C 124.514 53.427 117.123 83.256 121.688 90.102 Z" transform="matrix(-0.956304, -0.292373, 0.292373, -0.956304, -0.000014, 0.000006)"/>
  <path style="fill: none; stroke-width: 3px; stroke: rgb(205, 205, 205);" d="M 165.42 393.683 C 180.673 435.051 195.055 447.671 200.669 453.229 C 189.865 465.128 195.074 484.544 203.831 477.169 C 208.642 482.119 214.33 482.63 218.42 477.129 C 229.914 483.55 246.502 470.121 232.612 448.072 C 228.257 434.771 214.719 411.297 214.406 365.988"/>
  <path style="fill: none; stroke-width: 3px; transform-box: fill-box; transform-origin: 50% 50%; stroke: rgb(205, 205, 205);" d="M 276.531 453.473 C 294.053 412.364 301.026 403.404 306.934 393.3 C 296.392 381.149 304.333 361.582 312.481 369.889 C 317.292 364.939 322.98 364.428 327.069 369.929 C 338.564 363.508 350.798 376.332 336.907 398.381 C 329.399 412.376 326.199 448.396 325.336 494.401" transform="matrix(-1, 0, 0, -1, 0.000085, 0.00001)"/>
  <path style="fill: none; stroke-width: 3px; stroke: rgb(205, 205, 205);" d="M 238.121 463.103 C 238.545 464.988 279.913 470.058 279.546 468.42"/>
  <path style="fill: none; stroke-width: 3px; stroke: rgb(205, 205, 205);" d="M 354.132 460.927 C 366.606 458.917 371.474 475.637 356.243 480.604 C 347.839 483.674 324.944 477.066 320.571 471.81"/>
  <path style="fill: none; stroke-width: 3px; stroke: rgb(205, 205, 205);" d="M 356.018 480.715 C 357.963 478.112 356.492 473.36 354.591 472.866"/>
  <path style="fill: none; stroke-width: 3px; transform-box: fill-box; transform-origin: 50% 50%; stroke: rgb(205, 205, 205);" d="M 179.62 470.091 C 192.094 472.102 196.852 454.858 181.619 449.889 C 173.235 447.546 149.654 453.954 145.281 459.21" transform="matrix(-1, 0, 0, -1, -0.000017, 0.000018)"/>
  <path style="fill: none; stroke-width: 3px; stroke: rgb(205, 205, 205);" d="M 159.562 459.079 C 154.832 459.741 150.652 466.719 154.892 469.752"/>
  <path style="fill: none; stroke-width: 3px; stroke: rgb(205, 205, 205);" d="M 203.973 477.388 C 202.835 475.896 202.936 473.331 204.016 471.953"/>
  <path style="fill: none; stroke-width: 3px; stroke: rgb(205, 205, 205);" d="M 218.374 477.254 C 219.284 475.501 218.425 472.228 217.846 471.616"/>
  <path style="fill: none; stroke-width: 3px; stroke: rgb(205, 205, 205);" d="M 292.649 490.554 C 291.574 489.272 291.941 485.425 293.295 484.267"/>
  <path style="fill: none; stroke-width: 3px; stroke: rgb(205, 205, 205);" d="M 307.155 490.478 C 308.085 488.805 307.663 485.736 306.303 483.861"/>
  <ellipse style="stroke-width: 3px; stroke: rgb(207, 207, 207); fill: none;" cx="187.307" cy="162.099" rx="17.689" ry="17.689"/>
  <ellipse style="stroke: rgb(207, 207, 207); fill: rgb(207, 207, 207);" cx="187.524" cy="162.163" rx="14.094" ry="14.094"/>
  <ellipse style="stroke-width: 3px; stroke: rgb(207, 207, 207); fill: none;" cx="311.292" cy="164.525" rx="17.689" ry="17.689"/>
  <ellipse style="stroke: rgb(207, 207, 207); fill: rgb(207, 207, 207);" cx="311.509" cy="164.589" rx="14.094" ry="14.094"/>
</svg>