<?xml version="1.0" encoding="utf-8"?>
<svg viewBox="0 0 500 500" xmlns="http://www.w3.org/2000/svg">
  <polyline style="stroke: rgb(0, 0, 0); stroke-opacity: 0; fill: rgb(244, 244, 244); stroke-width: 3px;" points="66.254 222.94 139.758 124.674 358.803 125.891 411.834 217.662"/>
  <path style="stroke: rgb(0, 0, 0); stroke-width: 3px; fill: rgb(244, 244, 244); transform-origin: 250.08px 116.575px;" d="M 141.496 124.822 C 206.926 67.722 305.764 79.868 357.441 126.43"/>
  <path style="stroke: rgb(0, 0, 0); stroke-width: 3px; fill: rgb(244, 244, 244); transform-origin: 240.533px 350.374px;" d="M 411.951 217.347 C 421.322 258.89 419.897 289.32 402.345 321.765 C 470.942 401.875 390.139 509.514 279.579 462.903 C 259.772 493.248 198.059 486.134 189.32 458.646 C 89.623 505.406 7.225 401.119 76.436 319.213 C 63.612 297.407 56.47 251.716 68.416 222.768"/>
  <path style="stroke: rgb(0, 0, 0); stroke-width: 3px; fill: rgb(244, 244, 244); transform-origin: 424.785px 125.111px;" d="M 358.251 129.083 C 394.301 -32.236 529.741 -4.243 483.205 96.979 C 458.802 150.054 477.354 239.482 410.23 215.348"/>
  <path style="stroke: rgb(0, 0, 0); stroke-width: 3px; fill: rgb(244, 244, 244); transform-origin: 73.429px 127.581px;" d="M 140.548 127.367 C 115.546 -36.138 -24.623 -5.698 14.922 98.609 C 35.66 153.305 1.67 240.391 70.267 221.123"/>
  <ellipse style="stroke: rgb(0, 0, 0); stroke-opacity: 0; fill: rgb(244, 244, 244);" cx="242.489" cy="404.301" rx="42.088" ry="53.924"/>
  <path style="stroke: rgb(0, 0, 0); stroke-width: 3px; fill: rgb(205, 205, 205); transform-origin: 242.528px 358.021px;" d="M 202.735 282.974 C 228.348 252.33 277.2 251.8 297.104 286.575 C 314.966 317.793 331.985 317.107 368.051 350.11 C 412.851 405.717 350.108 473.11 300.369 446.899 C 264.078 425.698 265.463 378.351 241.67 369.326 C 213.076 380.758 205.489 425.451 173.123 440.292 C 105.501 467.323 72.641 369.336 125.77 337.816 C 161.506 308.882 179.676 312.297 202.735 282.974 Z"/>
  <path style="stroke: rgb(0, 0, 0); fill: none; stroke-width: 3px; transform-origin: 237.869px 427.096px;" d="M 203.708 411.836 C 215.657 452.098 269.642 440.091 272.823 416.111"/>
  <line style="fill: rgb(216, 216, 216); stroke: rgb(0, 0, 0); stroke-width: 3px; transform-origin: 244.966px 345.487px;" x1="242.943" y1="369.199" x2="246.988" y2="314.882"/>
  <path style="stroke: rgb(0, 0, 0); fill: none; stroke-width: 3px; transform-origin: 249.982px 255.374px;" d="M 207.439 257.236 C 233.346 233.632 271.98 236.684 291.969 258.604"/>
  <path style="stroke: rgb(0, 0, 0); stroke-width: 3px; transform-origin: 250.955px 301.352px;" d="M 247.246 315.343 C 227.379 304.189 222.934 293.386 223.351 286.58 C 235.409 273.05 274.596 277.383 279.151 289.126 C 279.397 299.278 268.294 310.615 247.246 315.343 Z"/>
  <ellipse style="stroke: rgb(0, 0, 0); stroke-width: 3px; transform-origin: 214.067px 197.524px;" cx="214.067" cy="197.524" rx="3.716" ry="3.814" transform="matrix(0.999357998371, 0.035827998072, -0.033996000886, 0.999424099922, -28.512901254003, 126.188505573526)"/>
  <ellipse style="stroke: rgb(0, 0, 0); stroke-width: 3px; transform-origin: 224.895px 219.795px;" cx="224.895" cy="219.795" rx="3.011" ry="3.091" transform="matrix(0.999357998371, 0.035827998072, -0.033996000886, 0.999424099922, -18.314094656906, 152.564945258416)"/>
  <ellipse style="stroke: rgb(0, 0, 0); stroke-width: 3px; transform-origin: 230.747px 201.274px;" cx="230.747" cy="201.274" rx="3.879" ry="3.981" transform="matrix(0.999357998371, 0.035827998072, -0.033996000886, 0.999424099922, -10.569691107469, 131.744154142298)"/>
  <ellipse style="stroke: rgb(0, 0, 0); stroke-width: 3px; transform-origin: 209.653px 213.581px;" cx="209.653" cy="213.581" rx="4.077" ry="4.186" transform="matrix(0.999357998371, 0.035827998072, -0.033996000886, 0.999424099922, -34.50672512223, 144.288745054388)"/>
  <ellipse style="stroke: rgb(0, 0, 0); stroke-width: 3px; transform-origin: 271.351px 200.263px;" cx="271.351" cy="200.263" rx="3.095" ry="3.177" transform="matrix(0.999357998371, 0.035827998072, -0.033996000886, 0.999424099922, 33.850266482955, 133.629161710491)"/>
  <ellipse style="stroke: rgb(0, 0, 0); stroke-width: 3px; transform-origin: 262.789px 223.295px;" cx="262.789" cy="223.295" rx="3.727" ry="3.826" transform="matrix(0.999357998371, 0.035827998072, -0.033996000886, 0.999424099922, 22.816166161227, 159.424669763174)"/>
  <ellipse style="stroke: rgb(0, 0, 0); stroke-width: 3px; transform-origin: 255.514px 204.566px;" cx="255.514" cy="204.566" rx="4.516" ry="4.636" transform="matrix(0.999357998371, 0.035827998072, -0.033996000886, 0.999424099922, 16.238961984528, 137.380526324859)"/>
  <ellipse style="stroke: rgb(0, 0, 0); stroke-width: 3px; transform-origin: 276.48px 216.406px;" cx="276.48" cy="216.406" rx="4.188" ry="4.299" transform="matrix(0.999357998371, 0.035827998072, -0.033996000886, 0.999424099922, 38.272339088495, 152.543777127454)"/>
  <path style="stroke: rgb(0, 0, 0); stroke-width: 3px; fill: rgb(205, 205, 205); transform-origin: 431.458px 124.592px;" d="M 386.981 126.885 C 406.145 21.314 500.991 18.88 459.255 95.783 C 436.821 133.248 455.388 195.978 421.657 184.884 C 402.884 178.708 381.359 140.689 386.981 126.885 Z"/>
  <path style="stroke: rgb(0, 0, 0); stroke-width: 3px; fill: rgb(205, 205, 205); transform-origin: 60.732px 124.694px;" d="M 104.197 123.932 C 95.888 16.881 4.264 10.68 37.94 91.639 C 56.439 131.307 26.448 197.741 61.12 190.324 C 80.421 186.199 108.384 138.262 104.197 123.932 Z"/>
  <ellipse style="stroke: rgb(0, 0, 0); fill: none; stroke-width: 3px;" cx="135.749" cy="253.78" rx="33.601" ry="32.84"/>
  <ellipse style="stroke: rgb(0, 0, 0);" cx="135.474" cy="254.232" rx="28.096" ry="27.928"/>
  <ellipse style="stroke: rgb(0, 0, 0); fill: none; stroke-width: 3px;" cx="355.409" cy="254.806" rx="33.601" ry="32.84"/>
  <ellipse style="stroke: rgb(0, 0, 0);" cx="355.134" cy="255.258" rx="28.096" ry="27.928"/>
</svg>